<svg viewBox="0 0 100 100" xmlns="http://www.w3.org/2000/svg">
<rect width="100%" height="100%" fill="#ffffff" />
<path d="M8 92L36 92L36 64L8 64ZM56 92L64 92L64 80L72 80L72 72L68 72L68 76L60 76L60 84L52 84L52 88L56 88ZM68 92L72 92L72 88L68 88ZM80 92L84 92L84 84L88 84L88 88L92 88L92 80L84 80L84 76L88 76L88 72L84 72L84 68L80 68ZM12 88L12 68L32 68L32 88ZM72 88L76 88L76 84L72 84ZM16 84L28 84L28 72L16 72ZM44 84L48 84L48 76L52 76L52 72L56 72L56 76L60 76L60 72L64 72L64 68L72 68L72 64L68 64L68 60L64 60L64 56L60 56L60 60L56 60L56 64L60 64L60 68L48 68L48 72L44 72ZM52 80L56 80L56 76L52 76ZM40 72L44 72L44 68L40 68ZM72 72L76 72L76 68L72 68ZM88 72L92 72L92 64L88 64ZM40 64L44 64L44 60L40 60ZM72 64L76 64L76 60L80 60L80 56L84 56L84 52L76 52L76 56L68 56L68 60L72 60ZM84 64L88 64L88 60L84 60ZM8 60L12 60L12 56L8 56ZM24 60L28 60L28 56L24 56ZM32 60L36 60L36 56L32 56ZM16 56L24 56L24 52L16 52ZM28 56L32 56L32 52L36 52L36 56L48 56L48 52L40 52L40 48L48 48L48 44L36 44L36 48L32 48L32 44L36 44L36 40L28 40L28 48L24 48L24 52L28 52ZM52 56L60 56L60 52L52 52ZM12 52L16 52L16 44L12 44ZM48 52L52 52L52 48L48 48ZM60 52L64 52L64 44L60 44ZM68 52L72 52L72 48L68 48ZM84 52L92 52L92 40L88 40L88 44L84 44ZM72 48L80 48L80 44L76 44L76 40L72 40ZM48 44L52 44L52 40L48 40ZM64 44L68 44L68 40L64 40ZM80 44L84 44L84 40L80 40ZM40 40L44 40L44 32L40 32ZM52 40L56 40L56 36L52 36ZM8 36L36 36L36 8L8 8ZM48 36L52 36L52 32L56 32L56 28L48 28ZM56 36L60 36L60 32L56 32ZM64 36L92 36L92 8L64 8ZM12 32L12 12L32 12L32 32ZM68 32L68 12L88 12L88 32ZM16 28L28 28L28 16L16 16ZM40 28L44 28L44 24L40 24ZM56 28L60 28L60 16L56 16ZM72 28L84 28L84 16L72 16ZM40 20L52 20L52 16L48 16L48 8L40 8L40 12L44 12L44 16L40 16ZM52 12L56 12L56 8L52 8Z" fill-rule="evenodd" />
</svg>
