<svg viewBox="0 0 100 100" xmlns="http://www.w3.org/2000/svg">
<rect width="100%" height="100%" fill="#ffffff" />
<path d="M8 92L36 92L36 64L8 64ZM44 92L48 92L48 88L44 88ZM56 92L72 92L72 88L76 88L76 84L80 84L80 92L84 92L84 76L88 76L88 72L84 72L84 68L80 68L80 80L72 80L72 84L68 84L68 88L60 88L60 84L68 84L68 80L60 80L60 76L72 76L72 68L76 68L76 64L72 64L72 40L56 40L56 44L60 44L60 48L64 48L64 52L68 52L68 56L64 56L64 60L68 60L68 68L64 68L64 72L60 72L60 68L52 68L52 72L56 72L56 76L52 76L52 88L56 88ZM12 88L12 68L32 68L32 88ZM88 88L92 88L92 84L88 84ZM16 84L28 84L28 72L16 72ZM40 84L48 84L48 80L44 80L44 72L40 72ZM48 76L52 76L52 72L48 72ZM44 72L48 72L48 68L44 68ZM48 68L52 68L52 64L48 64ZM88 68L92 68L92 64L88 64ZM40 64L48 64L48 60L44 60L44 52L52 52L52 48L40 48L40 44L36 44L36 48L32 48L32 52L40 52ZM84 64L88 64L88 60L92 60L92 56L84 56ZM8 60L16 60L16 56L12 56L12 44L8 44ZM20 60L24 60L24 56L20 56ZM32 60L36 60L36 56L32 56ZM52 60L60 60L60 48L56 48L56 52L52 52ZM76 56L84 56L84 52L76 52ZM20 52L28 52L28 48L32 48L32 44L28 44L28 40L16 40L16 48L20 48ZM84 52L92 52L92 48L88 48L88 44L92 44L92 40L80 40L80 44L84 44ZM52 48L56 48L56 44L52 44ZM76 48L80 48L80 44L76 44ZM32 44L36 44L36 40L32 40ZM40 44L48 44L48 40L44 40L44 28L40 28ZM8 36L36 36L36 8L8 8ZM48 36L52 36L52 28L48 28ZM56 36L60 36L60 28L56 28ZM64 36L92 36L92 8L64 8ZM12 32L12 12L32 12L32 32ZM68 32L68 12L88 12L88 32ZM16 28L28 28L28 16L16 16ZM44 28L48 28L48 24L44 24ZM52 28L56 28L56 24L52 24ZM72 28L84 28L84 16L72 16ZM40 20L44 20L44 12L48 12L48 16L52 16L52 20L56 20L56 8L40 8Z" fill-rule="evenodd" />
</svg>
